<svg xmlns="http://www.w3.org/2000/svg" xmlns:xlink="http://www.w3.org/1999/xlink" viewBox="0,0,256,256" width="40px" height="40px"><g fill="#f7f1ea" fill-rule="nonzero" stroke="none" stroke-width="1" stroke-linecap="butt" stroke-linejoin="miter" stroke-miterlimit="10" stroke-dasharray="" stroke-dashoffset="0" font-family="none" font-weight="none" font-size="none" text-anchor="none" style="mix-blend-mode: normal"><g transform="scale(6.4,6.4)"><path d="M21,24.15l-12.143,12.143l-4.15,-4.15l12.143,-12.143l-12.143,-12.143l4.15,-4.15l12.143,12.143l12.143,-12.143l4.15,4.15l-12.143,12.143l12.143,12.143l-4.15,4.15z"></path><path d="M33.143,4.414l3.443,3.443l-11.436,11.436l-0.707,0.707l0.707,0.707l11.436,11.436l-3.443,3.443l-11.436,-11.436l-0.707,-0.707l-0.707,0.707l-11.436,11.436l-3.443,-3.443l11.436,-11.436l0.707,-0.707l-0.707,-0.707l-11.436,-11.436l3.443,-3.443l11.436,11.436l0.707,0.707l0.707,-0.707l11.436,-11.436M33.143,3l-12.143,12.143l-12.143,-12.143l-4.857,4.857l12.143,12.143l-12.143,12.143l4.857,4.857l12.143,-12.143l12.143,12.143l4.857,-4.857l-12.143,-12.143l12.143,-12.143l-4.857,-4.857z"></path></g></g></svg>